<svg xmlns="http://www.w3.org/2000/svg" version="1.1" xmlns:xlink="http://www.w3.org/1999/xlink" width="32" height="32"><svg xmlns="http://www.w3.org/2000/svg" version="1.1" xmlns:xlink="http://www.w3.org/1999/xlink" width="32" height="32"><svg width="32" height="32" viewBox="0 0 32 32" fill="none" xmlns="http://www.w3.org/2000/svg">
  <rect width="32" height="32" rx="6" fill="#0a0a0a"></rect>
  <path d="M16 4C16 4 12 9.33333 12 14C12 16 12.6667 17.6667 14 19C12.6667 18.3333 11.6667 17.3333 11 16C11 20 13 24 16 26C19 24 21 20 21 16C20.3333 17.3333 19.3333 18.3333 18 19C19.3333 17.6667 20 16 20 14C20 9.33333 16 4 16 4Z" fill="#f97316"></path>
  <path d="M16 10C16 10 14 13 14 15.5C14 16.5 14.3333 17.3333 15 18C14.3333 17.6667 13.8333 17.1667 13.5 16.5C13.5 18.5 14.5 20.5 16 22C17.5 20.5 18.5 18.5 18.5 16.5C18.1667 17.1667 17.6667 17.6667 17 18C17.6667 17.3333 18 16.5 18 15.5C18 13 16 10 16 10Z" fill="#fdba74"></path>
</svg></svg><style>@media (prefers-color-scheme: light) { :root { filter: none; } }
@media (prefers-color-scheme: dark) { :root { filter: none; } }
</style></svg>