<svg width="200" height="40" viewBox="0 0 200 40" fill="none" xmlns="http://www.w3.org/2000/svg">
  <path d="M20 4C20 4 14 10.67 14 17C14 19.67 14.89 21.89 16.67 23.67C14.89 22.78 13.56 21.44 12.67 19.67C12.67 25 15.33 30.33 20 33.33C24.67 30.33 27.33 25 27.33 19.67C26.44 21.44 25.11 22.78 23.33 23.67C25.11 21.89 26 19.67 26 17C26 10.67 20 4 20 4Z" fill="#f97316"/>
  <path d="M20 12C20 12 17 16 17 19.33C17 20.67 17.44 21.78 18.33 22.67C17.44 22.22 16.78 21.56 16.33 20.67C16.33 23.33 17.67 26 20 28C22.33 26 23.67 23.33 23.67 20.67C23.22 21.56 22.56 22.22 21.67 22.67C22.56 21.78 23 20.67 23 19.33C23 16 20 12 20 12Z" fill="#fdba74"/>
  <text x="44" y="27" font-family="monospace" font-size="18" font-weight="600" fill="currentColor">burnboard</text>
</svg>
